name rise49.8558peak67.6521fall70.3087.mot
datacolumns 19
datarows 30
range 10.91329900000000 10.96162100000000
endheader
time	ground_force1_vx	ground_force1_vy	ground_force1_vz	ground_force1_px	ground_force1_py	ground_force1_pz	ground_force2_vx	ground_force2_vy	ground_force2_vz	ground_force2_px	ground_force2_py	ground_force2_pz	ground_torque1_x	ground_torque1_y	ground_torque1_z	ground_torque2_x	ground_torque2_y	ground_torque2_z	
10.91329900000000	-40.26520700000000	820.91102500000000	55.56359600000000	0.21182800000000	0.00000000000000	0.10618700000000	0.00000000000000	0.00000000000000	0.00000000000000	0.00000000000000	0.00000000000000	0.00000000000000	0.00000000000000	32.88605500000000	0.00000000000000	0.00000000000000	0.00000000000000	0.00000000000000	
10.91495700000000	-40.64385300000000	820.95894399999997	55.74900500000000	0.21089900000000	0.00000000000000	0.10615600000000	0.00000000000000	0.00000000000000	0.00000000000000	0.00000000000000	0.00000000000000	0.00000000000000	0.00000000000000	32.86271700000000	0.00000000000000	0.00000000000000	0.00000000000000	0.00000000000000	
10.91662300000000	-41.03252000000000	820.89326200000005	55.92337800000000	0.20997100000000	0.00000000000000	0.10612400000000	0.00000000000000	0.00000000000000	0.00000000000000	0.00000000000000	0.00000000000000	0.00000000000000	0.00000000000000	32.83553300000000	0.00000000000000	0.00000000000000	0.00000000000000	0.00000000000000	
10.91830500000000	-41.43197200000000	820.71076700000003	56.08575700000000	0.20904100000000	0.00000000000000	0.10609000000000	0.00000000000000	0.00000000000000	0.00000000000000	0.00000000000000	0.00000000000000	0.00000000000000	0.00000000000000	32.80443700000000	0.00000000000000	0.00000000000000	0.00000000000000	0.00000000000000	
10.91995900000000	-41.84292900000000	820.40832200000000	56.23517700000000	0.20811000000000	0.00000000000000	0.10605300000000	0.00000000000000	0.00000000000000	0.00000000000000	0.00000000000000	0.00000000000000	0.00000000000000	0.00000000000000	32.76936300000000	0.00000000000000	0.00000000000000	0.00000000000000	0.00000000000000	
10.92162900000000	-42.26606500000000	819.98286099999996	56.37067200000000	0.20717800000000	0.00000000000000	0.10601500000000	0.00000000000000	0.00000000000000	0.00000000000000	0.00000000000000	0.00000000000000	0.00000000000000	0.00000000000000	32.73023900000000	0.00000000000000	0.00000000000000	0.00000000000000	0.00000000000000	
10.92330400000000	-42.70199900000000	819.43138999999996	56.49127400000000	0.20624400000000	0.00000000000000	0.10597500000000	0.00000000000000	0.00000000000000	0.00000000000000	0.00000000000000	0.00000000000000	0.00000000000000	0.00000000000000	32.68699400000000	0.00000000000000	0.00000000000000	0.00000000000000	0.00000000000000	
10.92496000000000	-43.15129500000000	818.75099100000000	56.59602500000000	0.20530800000000	0.00000000000000	0.10593200000000	0.00000000000000	0.00000000000000	0.00000000000000	0.00000000000000	0.00000000000000	0.00000000000000	0.00000000000000	32.63955300000000	0.00000000000000	0.00000000000000	0.00000000000000	0.00000000000000	
10.92663000000000	-43.61445500000000	817.93882199999996	56.68396800000000	0.20436900000000	0.00000000000000	0.10588700000000	-1.11396600000000	3.39357900000000	0.49033900000000	0.00000000000000	0.00000000000000	0.00000000000000	0.00000000000000	32.58784100000000	0.00000000000000	0.00000000000000	0.14559800000000	0.00000000000000	
10.92830100000000	-44.09191700000000	816.99211200000002	56.75416200000000	0.20342700000000	0.00000000000000	0.10584000000000	-1.81369300000000	6.77345100000000	0.81779600000000	0.00000000000000	0.00000000000000	0.00000000000000	0.00000000000000	32.53178000000000	0.00000000000000	0.00000000000000	0.24797900000000	0.00000000000000	
10.92995500000000	-44.58405000000000	815.90816800000005	56.80567800000000	0.20248300000000	0.00000000000000	0.10579000000000	-2.61094000000000	10.88923300000000	1.19481700000000	0.00000000000000	0.00000000000000	0.00000000000000	0.00000000000000	32.47129100000000	0.00000000000000	0.00000000000000	0.36692600000000	0.00000000000000	
10.93162100000000	-45.09115000000000	814.68437100000006	56.83760600000000	0.20153600000000	0.00000000000000	0.10573800000000	-3.48301800000000	15.70614200000000	1.61182900000000	0.00000000000000	0.00000000000000	0.00000000000000	0.00000000000000	32.40629400000000	0.00000000000000	0.00000000000000	0.49975600000000	0.00000000000000	
10.93331600000000	-45.61343700000000	813.31817699999999	56.84905700000000	0.20058600000000	0.00000000000000	0.10568300000000	-4.40104500000000	21.15791800000000	2.05630700000000	0.00000000000000	0.00000000000000	0.00000000000000	0.00000000000000	32.33670900000000	0.00000000000000	0.00000000000000	0.64286500000000	0.00000000000000	
10.93496300000000	-46.15105300000000	811.80711499999995	56.83916800000000	0.19963200000000	0.00000000000000	0.10562600000000	-5.33180100000000	27.15193900000000	2.51358200000000	0.35482800000000	0.00000000000000	-0.09083800000000	0.00000000000000	32.26245300000000	0.00000000000000	0.00000000000000	1.19951900000000	0.00000000000000	
10.93662900000000	-46.70405700000000	810.14879099999996	56.80710300000000	0.19867500000000	0.00000000000000	0.10556500000000	-6.24011300000000	33.57712700000000	2.96789600000000	0.36694400000000	0.00000000000000	-0.09099300000000	0.00000000000000	32.18344500000000	0.00000000000000	0.00000000000000	1.46362600000000	0.00000000000000	
10.93830400000000	-47.27242400000000	808.34088499999996	56.75205700000000	0.19771500000000	0.00000000000000	0.10550200000000	-7.09145900000000	40.31361900000000	3.40357900000000	0.37747800000000	0.00000000000000	-0.09114300000000	0.00000000000000	32.09960300000000	0.00000000000000	0.00000000000000	1.72788600000000	0.00000000000000	
10.93995800000000	-47.85604300000000	806.38115100000005	56.67326400000000	0.19675200000000	0.00000000000000	0.10543500000000	-7.85443600000000	47.24280500000000	3.80617400000000	0.38671000000000	0.00000000000000	-0.09128800000000	0.00000000000000	32.01084200000000	0.00000000000000	0.00000000000000	1.98367700000000	0.00000000000000	
10.94162100000000	-48.45471200000000	804.26742000000002	56.56999100000000	0.19578600000000	0.00000000000000	0.10536600000000	-8.50279000000000	54.25638200000000	4.16337900000000	0.39486200000000	0.00000000000000	-0.09142900000000	0.00000000000000	31.91708200000000	0.00000000000000	0.00000000000000	2.22328100000000	0.00000000000000	
10.94330500000000	-49.06813900000000	801.99759500000005	56.44155100000000	0.19481700000000	0.00000000000000	0.10529400000000	-9.01679000000000	61.26347700000000	4.46570300000000	0.40210700000000	0.00000000000000	-0.09156800000000	0.00000000000000	31.81824000000000	0.00000000000000	0.00000000000000	2.44033500000000	0.00000000000000	
10.94496100000000	-49.69593800000000	799.56965800000000	56.28729900000000	0.19384600000000	0.00000000000000	0.10521800000000	-9.38389400000000	68.19531100000000	4.70680000000000	0.40858300000000	0.00000000000000	-0.09170400000000	0.00000000000000	31.71423400000000	0.00000000000000	0.00000000000000	2.63011500000000	0.00000000000000	
10.94662100000000	-50.33763300000000	796.98166900000001	56.10663900000000	0.19287200000000	0.00000000000000	0.10513900000000	-9.59872400000000	75.00731000000000	4.88350000000000	0.41440200000000	0.00000000000000	-0.09183800000000	0.00000000000000	31.60498200000000	0.00000000000000	0.00000000000000	2.78963500000000	0.00000000000000	
10.94829400000000	-50.99265000000000	794.23176100000001	55.89902300000000	0.19189600000000	0.00000000000000	0.10505700000000	-9.66246300000000	81.67887899999999	4.99557300000000	0.41965700000000	0.00000000000000	-0.09197100000000	0.00000000000000	31.49040300000000	0.00000000000000	0.00000000000000	2.91758800000000	0.00000000000000	
10.94995500000000	-51.66032000000000	791.31815099999994	55.66396100000000	0.19091800000000	0.00000000000000	0.10497200000000	-9.58182100000000	88.21124100000000	5.04529200000000	0.42442300000000	0.00000000000000	-0.09210200000000	0.00000000000000	31.37041800000000	0.00000000000000	0.00000000000000	3.01416600000000	0.00000000000000	
10.95162400000000	-52.33988100000000	788.23913400000004	55.40101300000000	0.18993800000000	0.00000000000000	0.10488300000000	-9.36772400000000	94.62384500000000	5.03686300000000	0.42876400000000	0.00000000000000	-0.09223100000000	0.00000000000000	31.24494600000000	0.00000000000000	0.00000000000000	3.08077400000000	0.00000000000000	
10.95329900000000	-53.03047300000000	784.99308900000005	55.10980200000000	0.18895700000000	0.00000000000000	0.10479100000000	-9.03388700000000	100.94990900000001	4.97580400000000	0.43273000000000	0.00000000000000	-0.09235900000000	0.00000000000000	31.11390900000000	0.00000000000000	0.00000000000000	3.11970000000000	0.00000000000000	
10.95496000000000	-53.73114300000000	781.57847600000002	54.79000800000000	0.18797600000000	0.00000000000000	0.10469500000000	-8.59540900000000	107.23160300000001	4.86831400000000	0.43636900000000	0.00000000000000	-0.09248600000000	0.00000000000000	30.97722800000000	0.00000000000000	0.00000000000000	3.13377500000000	0.00000000000000	
10.95662500000000	-54.44084200000000	777.99384399999997	54.44137700000000	0.18699400000000	0.00000000000000	0.10459600000000	-8.06750100000000	113.51533100000000	4.72070300000000	0.43971700000000	0.00000000000000	-0.09261200000000	0.00000000000000	30.83482800000000	0.00000000000000	0.00000000000000	3.12603700000000	0.00000000000000	
10.95830100000000	-55.15843000000000	774.23782900000003	54.06371800000000	0.18601200000000	0.00000000000000	0.10449300000000	-7.46442200000000	119.84747800000000	4.53890900000000	0.44280600000000	0.00000000000000	-0.09273700000000	0.00000000000000	30.68663200000000	0.00000000000000	0.00000000000000	3.09944900000000	0.00000000000000	
10.95995500000000	-55.88267400000000	770.30916000000002	53.65690500000000	0.18503000000000	0.00000000000000	0.10438600000000	-6.79867300000000	126.27086199999999	4.32812500000000	0.44566500000000	0.00000000000000	-0.09286100000000	0.00000000000000	30.53256400000000	0.00000000000000	0.00000000000000	3.05666600000000	0.00000000000000	
10.96162100000000	-56.61225100000000	766.20665699999995	53.22088300000000	0.18405000000000	0.00000000000000	0.10427700000000	-6.08047700000000	132.82206099999999	4.09255300000000	0.44831700000000	0.00000000000000	-0.09298400000000	0.00000000000000	30.37255200000000	0.00000000000000	0.00000000000000	2.99986900000000	0.00000000000000	
